<?xml version="1.0" encoding="UTF-8" standalone="no"?>
<!DOCTYPE svg PUBLIC "-//W3C//DTD SVG 1.1//EN" "http://www.w3.org/Graphics/SVG/1.1/DTD/svg11.dtd">
<svg version="1.1" xmlns="http://www.w3.org/2000/svg" xmlns:xlink="http://www.w3.org/1999/xlink" preserveAspectRatio="xMidYMid meet" viewBox="0 0 90 50" width="90" height="50"><defs><path d="M43.2 26C43.2 30.07 39.97 33.37 35.99 33.37C32.01 33.37 28.77 30.07 28.77 26C28.77 21.93 32.01 18.63 35.99 18.63C39.97 18.63 43.2 21.93 43.2 26Z" id="fCa2GVj5Q"></path><path d="M25.05 27.32L24.72 28.57L24.18 29.72L23.47 30.75L22.6 31.64L21.6 32.37L20.47 32.91L19.25 33.25L17.96 33.37L16.66 33.25L15.44 32.91L14.32 32.37L13.31 31.64L12.44 30.75L11.73 29.72L11.2 28.57L10.86 27.32L10.75 26L10.86 24.68L11.2 23.43L11.73 22.28L12.44 21.25L13.31 20.36L14.32 19.63L15.44 19.09L16.66 18.75L17.96 18.63L19.25 18.75L20.47 19.09L21.6 19.63L22.6 20.36L23.47 21.25L24.18 22.28L24.72 23.43L25.05 24.68L25.17 26L25.17 26L25.05 27.32Z" id="bAwJL0qh0"></path><path d="M24.31 26C24.31 29.48 21.46 32.31 17.96 32.31C14.45 32.31 11.61 29.48 11.61 26C11.61 22.52 14.45 19.69 17.96 19.69C21.46 19.69 24.31 22.52 24.31 26Z" id="auRDR1bRR"></path><path d="M61.11 27.32L60.77 28.57L60.24 29.72L59.53 30.75L58.66 31.64L57.65 32.37L56.53 32.91L55.31 33.25L54.01 33.37L52.72 33.25L51.5 32.91L50.38 32.37L49.37 31.64L48.5 30.75L47.79 29.72L47.25 28.57L46.92 27.32L46.8 26L46.92 24.68L47.25 23.43L47.79 22.28L48.5 21.25L49.37 20.36L50.38 19.63L51.5 19.09L52.72 18.75L54.01 18.63L55.31 18.75L56.53 19.09L57.65 19.63L58.66 20.36L59.53 21.25L60.24 22.28L60.77 23.43L61.11 24.68L61.23 26L61.23 26L61.11 27.32Z" id="e4xxw4uWz"></path><path d="M60.37 26C60.37 29.48 57.52 32.31 54.01 32.31C50.51 32.31 47.66 29.48 47.66 26C47.66 22.52 50.51 19.69 54.01 19.69C57.52 19.69 60.37 22.52 60.37 26Z" id="a1Ly9bLq49"></path><path d="M79.14 27.32L78.8 28.57L78.27 29.72L77.56 30.75L76.69 31.64L75.68 32.37L74.56 32.91L73.34 33.25L72.04 33.37L70.75 33.25L69.53 32.91L68.4 32.37L67.4 31.64L66.53 30.75L65.82 29.72L65.28 28.57L64.95 27.32L64.83 26L64.95 24.68L65.28 23.43L65.82 22.28L66.53 21.25L67.4 20.36L68.4 19.63L69.53 19.09L70.75 18.75L72.04 18.63L73.34 18.75L74.56 19.09L75.68 19.63L76.69 20.36L77.56 21.25L78.27 22.28L78.8 23.43L79.14 24.68L79.25 26L79.25 26L79.14 27.32Z" id="a8YzLgURz"></path><path d="M78.39 26C78.39 29.48 75.55 32.31 72.04 32.31C68.54 32.31 65.69 29.48 65.69 26C65.69 22.52 68.54 19.69 72.04 19.69C75.55 19.69 78.39 22.52 78.39 26Z" id="b4epT8NRWt"></path></defs><g><g><g><g><use xlink:href="#fCa2GVj5Q" opacity="1" fill="#ed8a65" fill-opacity="1"></use></g><g><g><use xlink:href="#bAwJL0qh0" opacity="1" fill="#ed8a65" fill-opacity="1"></use></g><g><use xlink:href="#auRDR1bRR" opacity="1" fill="#ffffff" fill-opacity="1"></use></g></g><g><g><use xlink:href="#e4xxw4uWz" opacity="1" fill="#ed8a65" fill-opacity="1"></use></g><g><use xlink:href="#a1Ly9bLq49" opacity="1" fill="#ffffff" fill-opacity="1"></use></g></g><g><g><use xlink:href="#a8YzLgURz" opacity="1" fill="#ed8a65" fill-opacity="1"></use></g><g><use xlink:href="#b4epT8NRWt" opacity="1" fill="#ffffff" fill-opacity="1"></use></g></g></g></g></g></svg>